<svg xmlns="http://www.w3.org/2000/svg" viewBox="0 0 172.83 104.19"><defs><style>.cls-1{fill:#00b56c;}</style></defs><title>Asset 1</title><g id="Layer_2" data-name="Layer 2"><g id="Layer_1-2" data-name="Layer 1"><path class="cls-1" d="M165.44,41.79a7.3,7.3,0,0,0-7,9.57l-16.07,9.83a16.19,16.19,0,0,0-8.61-6.81l6.05-31,.58,0a11.71,11.71,0,1,0-4-.72l-6,31c-.55-.05-1.1-.08-1.66-.08a16.1,16.1,0,0,0-11.87,5.24L100.69,45.44a8.33,8.33,0,0,0,.93-3.79,8.51,8.51,0,1,0-8.51,8.51,8.42,8.42,0,0,0,5.39-2l16.18,13.44a16,16,0,0,0-1.49,12.75l-3.12,1.19a5.65,5.65,0,0,0-4.31-2,5.7,5.7,0,1,0,5.7,5.7c0-.15,0-.29,0-.44l3.16-1.2a16.29,16.29,0,0,0,7.65,6.9L121,89.62h0a7.39,7.39,0,1,0,3.43.9l1.19-5a16,16,0,0,0,15-5l3.63,2.81a8.22,8.22,0,0,0-.85,3.6,8.33,8.33,0,1,0,8.33-8.33,8.23,8.23,0,0,0-5.31,2l-3.72-2.88a16,16,0,0,0,1.25-13.38l16.32-10a7.39,7.39,0,1,0,5.25-12.59Zm-33.26-30.1a8.18,8.18,0,1,1,8.18,8.17A8.19,8.19,0,0,1,132.18,11.69Zm-39.07,35a5,5,0,1,1,5-5A5,5,0,0,1,93.11,46.65Zm12.65,34.78A2.19,2.19,0,1,1,108,79.24,2.19,2.19,0,0,1,105.76,81.43ZM121,100.68a3.78,3.78,0,1,1,3.77-3.78A3.78,3.78,0,0,1,121,100.68Zm30.69-18.51A4.82,4.82,0,1,1,146.83,87,4.83,4.83,0,0,1,151.65,82.17Zm-23-3.35a9.13,9.13,0,1,1,9.13-9.12A9.14,9.14,0,0,1,128.64,78.82Zm36.8-25.75a3.89,3.89,0,1,1,3.88-3.89A3.89,3.89,0,0,1,165.44,53.07Z"/><path d="M18.55,79.72a10.81,10.81,0,0,1-6.94,2.18C4.85,81.9,0,77.14,0,70.38S4.85,58.9,11.61,58.9c3.4,0,6.58,1.23,7.53,3a2.1,2.1,0,0,1,.27,1,2.61,2.61,0,0,1-2.72,2.45,2.93,2.93,0,0,1-1.59-.46,6.23,6.23,0,0,0-3.22-.9c-3.49,0-5.94,2.54-5.94,6.35s2.45,6.39,5.94,6.39a5.94,5.94,0,0,0,3.27-1,2.75,2.75,0,0,1,1.54-.45,2.64,2.64,0,0,1,2.77,2.49A2.38,2.38,0,0,1,18.55,79.72Z"/><path d="M30.35,53.64a3.45,3.45,0,1,1-3.45-3.4A3.41,3.41,0,0,1,30.35,53.64Zm-3.45,28A2.85,2.85,0,0,1,24,78.77V62A2.85,2.85,0,0,1,27,59.18,2.82,2.82,0,0,1,29.8,62V78.77A2.86,2.86,0,0,1,26.9,81.63Z"/><path d="M53.44,81.63a2.85,2.85,0,0,1-2.86-2.86v-.23a8.5,8.5,0,0,1-6.76,3.36c-5.53,0-9.71-4.17-9.71-11.48S38.24,58.9,43.82,58.9a8.44,8.44,0,0,1,6.76,3.36V53.69a2.91,2.91,0,0,1,5.81,0V78.77A2.87,2.87,0,0,1,53.44,81.63ZM50.58,66.52a6.27,6.27,0,0,0-5-2.49c-3.27,0-5.53,2.58-5.53,6.39s2.26,6.35,5.53,6.35a6.27,6.27,0,0,0,5-2.49Z"/><path d="M78.21,81.63h-.46a2.52,2.52,0,0,1-2.49-2.54,9.06,9.06,0,0,1-6.94,2.81c-3.49,0-7.62-2.36-7.62-7.26,0-5.12,4.13-7.07,7.62-7.07,2.9,0,5.49,1,6.94,2.67V67.29c0-2.22-1.91-3.67-4.81-3.67A8.67,8.67,0,0,0,65.55,65a2.17,2.17,0,0,1-1,.31,2.22,2.22,0,0,1-2.18-2.22A2.33,2.33,0,0,1,62.65,62c1.36-2.18,6.26-3.09,8.8-3.09,5,0,9.57,2,9.57,8.3V78.77A2.84,2.84,0,0,1,78.21,81.63Zm-2.95-8.26a5.76,5.76,0,0,0-4.63-1.9c-2.27,0-4.13,1.18-4.13,3.31S68.36,78,70.63,78a5.77,5.77,0,0,0,4.63-1.91Z"/><path d="M104.65,81.63a2.84,2.84,0,0,1-2.85-2.86v-.23A8.51,8.51,0,0,1,95,81.9c-5.53,0-9.71-4.17-9.71-11.48S89.46,58.9,95,58.9a8.45,8.45,0,0,1,6.76,3.36V53.69a2.9,2.9,0,0,1,5.8,0V78.77A2.87,2.87,0,0,1,104.65,81.63ZM101.8,66.52a6.27,6.27,0,0,0-5-2.49c-3.27,0-5.54,2.58-5.54,6.39s2.27,6.35,5.54,6.35a6.27,6.27,0,0,0,5-2.49Z"/><path d="M167.8,81.63a2.85,2.85,0,0,1-2.86-2.86V68.11c0-3-1.59-4.08-4-4.08a6.28,6.28,0,0,0-5,2.58V78.77a2.88,2.88,0,0,1-5.76,0V62a2.85,2.85,0,0,1,2.95-2.81A2.82,2.82,0,0,1,155.91,62v.31a10.08,10.08,0,0,1,7.67-3.4c4.81,0,7.12,2.72,7.12,7V78.77A2.86,2.86,0,0,1,167.8,81.63Z"/></g></g></svg>